<?xml version="1.0" encoding="UTF-8"?>
<svg version="1.1" xmlns="http://www.w3.org/2000/svg" width="64" height="64">
<path d="M0 0 C2.92384863 1.33543992 3.84866453 2.40736495 6 5 C6.875 8.8125 6.875 8.8125 7 12 C8.918125 11.938125 8.918125 11.938125 10.875 11.875 C13.0546875 11.8046875 13.0546875 11.8046875 15 12 C17.87260674 14.87260674 17.34304864 17.78930774 17.37109375 21.640625 C17.38012222 22.40042664 17.3891507 23.16022827 17.39845276 23.9430542 C17.41297407 25.55363009 17.42184667 27.16426522 17.42553711 28.77490234 C17.43739012 31.22726616 17.48651294 33.67707724 17.53710938 36.12890625 C17.54657893 37.69530025 17.55381142 39.26170968 17.55859375 40.828125 C17.57812607 41.55646545 17.59765839 42.28480591 17.61778259 43.03521729 C17.56728496 48.79989622 15.94717427 51.111239 12 55 C7.72496025 57.13751988 2.10459254 56.30913109 -2.63867188 56.35009766 C-4.03923201 56.36661675 -5.43970925 56.3938542 -6.83984375 56.43212891 C-19.9702297 56.78893287 -19.9702297 56.78893287 -23.890625 53.6015625 C-27.26761591 49.43660704 -27.16026515 46.40365458 -27.16796875 41.21875 C-27.17129715 40.44946167 -27.17462555 39.68017334 -27.17805481 38.88757324 C-27.18312004 37.26017862 -27.18546326 35.6327736 -27.18530273 34.00537109 C-27.1874913 31.50991825 -27.20565654 29.01490595 -27.22460938 26.51953125 C-27.22754291 24.94010568 -27.22952797 23.36067801 -27.23046875 21.78125 C-27.23765427 21.0322644 -27.24483978 20.28327881 -27.25224304 19.51159668 C-27.2288276 14.2288276 -27.2288276 14.2288276 -25 12 C-22.31160615 11.73008094 -19.70858064 11.91262643 -17 12 C-16.95875 10.948125 -16.9175 9.89625 -16.875 8.8125 C-15.99569992 4.98126396 -15.14439957 3.20985366 -11.94140625 0.88671875 C-8.0161331 -0.90611224 -4.17666275 -0.83262483 0 0 Z M-10.375 6.8125 C-12.298162 8.94720048 -12.298162 8.94720048 -12 12 C-7.38 12 -2.76 12 2 12 C1.67 10.35 1.34 8.7 1 7 C-3.14218729 4.23854181 -6.28309931 3.68973368 -10.375 6.8125 Z M-21 16 C-24.18065358 19.18065358 -23.29527122 22.7862625 -23.32226562 27.125 C-23.31904297 28.32125 -23.31582031 29.5175 -23.3125 30.75 C-23.32861328 31.93078125 -23.34472656 33.1115625 -23.36132812 34.328125 C-23.53333187 42.67310898 -23.53333187 42.67310898 -20 50 C-15.60259338 52.88449924 -10.1481782 52.33102031 -5.0625 52.3125 C-4.18142578 52.32861328 -3.30035156 52.34472656 -2.39257812 52.36132812 C2.75825772 52.36518643 6.67135958 52.10930509 11 49 C12.92355143 45.23450485 13.25661446 42.08990119 13.265625 37.89453125 C13.26820312 36.74662109 13.27078125 35.59871094 13.2734375 34.41601562 C13.26183594 32.63227539 13.26183594 32.63227539 13.25 30.8125 C13.25773437 29.61173828 13.26546875 28.41097656 13.2734375 27.17382812 C13.27085938 26.02978516 13.26828125 24.88574219 13.265625 23.70703125 C13.26336914 22.6600708 13.26111328 21.61311035 13.25878906 20.53442383 C13.25235183 17.83127172 13.25235183 17.83127172 11 16 C9.68 16 8.36 16 7 16 C7 17.98 7 19.96 7 22 C5.68 22 4.36 22 3 22 C3 20.02 3 18.04 3 16 C-2.28 16 -7.56 16 -13 16 C-13 17.98 -13 19.96 -13 22 C-14.32 22 -15.64 22 -17 22 C-17 20.02 -17 18.04 -17 16 C-18.32 16 -19.64 16 -21 16 Z " fill="#000000" transform="translate(37,4)"/>
</svg>
