<?xml version="1.0" encoding="UTF-8"?>
<svg version="1.1" xmlns="http://www.w3.org/2000/svg" width="64" height="64">
<path d="M0 0 C4.91394487 4.05934576 7.98475477 8.9542643 10 15 C10.51854434 22.37928479 10.54998497 28.44618159 7 35 C6.31920536 36.66094578 5.65006534 38.32678834 5 40 C5.45439453 40.43344727 5.90878906 40.86689453 6.37695312 41.31347656 C8.42837851 43.28179292 10.46418936 45.26554314 12.5 47.25 C13.21542969 47.93191406 13.93085937 48.61382812 14.66796875 49.31640625 C15.34472656 49.98027344 16.02148438 50.64414062 16.71875 51.328125 C17.34716797 51.9355957 17.97558594 52.54306641 18.62304688 53.16894531 C20 55 20 55 20 59 C16.10466535 58.88195956 14.30206152 57.55552523 11.6875 54.875 C11.10226563 54.25238281 10.51703125 53.62976562 9.9140625 52.98828125 C6.81196003 49.76589318 3.39790294 46.90366252 0 44 C-0.55945312 44.28875 -1.11890625 44.5775 -1.6953125 44.875 C-10.12328778 48.77734225 -19.55370186 49.79459938 -28.5 46.8125 C-36.19352057 42.82835542 -41.2610086 37.21697419 -44 29 C-44.60384831 20.65501435 -45.05710019 13.04130964 -40 6 C-39.4225 5.113125 -38.845 4.22625 -38.25 3.3125 C-27.94773851 -7.27593542 -12.11775563 -8.37856247 0 0 Z M-35.7734375 9.12109375 C-39.48576087 14.80780566 -39.73312258 20.39261673 -39 27 C-37.23376312 33.17654094 -33.32662991 37.52274056 -28 41 C-21.97310707 43.91366347 -15.04444186 44.16692093 -8.6171875 42.3125 C-2.65567638 39.59241888 0.68682014 35.3999494 3.8125 29.6875 C5.70177751 23.82079617 5.70177751 19.17920383 3.8125 13.3125 C0.22640112 6.75859515 -3.74250703 2.12822693 -11 0 C-21.67070584 -1.40744169 -28.9194802 0.86954181 -35.7734375 9.12109375 Z " fill="#000000" transform="translate(44,5)"/>
</svg>
