<?xml version="1.0" encoding="UTF-8"?>
<svg version="1.1" xmlns="http://www.w3.org/2000/svg" width="64" height="64">
<path d="M0 0 C1.08087891 -0.020625 2.16175781 -0.04125 3.27539062 -0.0625 C10.79033223 -0.09940579 15.39634581 0.5828971 21 5.9375 C23.772164 10.13534835 24.1875 12.2390698 24.1875 17.25 C23.04975672 19.68063337 22.06936104 21.36813896 20.1875 23.25 C17.26554153 23.37596294 14.36852268 23.43868568 11.4453125 23.453125 C10.12634476 23.46167511 10.12634476 23.46167511 8.7807312 23.47039795 C6.91617034 23.47986304 5.05159264 23.4863879 3.18701172 23.49023438 C0.33140905 23.49993576 -2.52347284 23.5309428 -5.37890625 23.5625 C-7.18749571 23.56903014 -8.99609034 23.57428057 -10.8046875 23.578125 C-11.66101776 23.5904718 -12.51734802 23.6028186 -13.39962769 23.61553955 C-14.19700348 23.61253845 -14.99437927 23.60953735 -15.81591797 23.60644531 C-16.86729446 23.61191376 -16.86729446 23.61191376 -17.93991089 23.61749268 C-20.42992927 23.12883047 -21.27941662 22.24495081 -22.8125 20.25 C-23.88272757 16.30353584 -24.48452898 13.85715016 -22.89453125 10.0546875 C-17.04651776 0.30200038 -10.6827854 0.05042023 0 0 Z M-15.8125 8.25 C-18.03373621 11.06356587 -18.87071023 12.39624999 -18.625 16 C-18.04253121 18.42221913 -18.04253121 18.42221913 -15.8125 19.25 C-11.26288721 19.48519577 -6.70951347 19.47839174 -2.15454102 19.49023438 C0.11283949 19.4999479 2.37931639 19.53097393 4.64648438 19.5625 C6.08593211 19.56902942 7.52538634 19.57428014 8.96484375 19.578125 C10.27702881 19.5874707 11.58921387 19.59681641 12.94116211 19.60644531 C16.13744602 19.51967688 16.13744602 19.51967688 18.13891602 17.87792969 C19.40184743 16.23995998 19.40184743 16.23995998 19.1875 13.875 C17.67845919 9.91376788 14.98274725 7.14762363 11.1875 5.25 C7.58928538 4.98247475 3.9820459 5.01841504 0.375 5 C-0.62337891 4.979375 -1.62175781 4.95875 -2.65039062 4.9375 C-9.75094653 4.83088645 -9.75094653 4.83088645 -15.8125 8.25 Z " fill="#000000" transform="translate(31.8125,34.75)"/>
<path d="M0 0 C4.1379219 2.06896095 6.27242495 3.75109921 8 8 C8.72320767 12.62516534 8.4121396 16.14401775 6.375 20.375 C3.63435042 23.40413901 1.89949563 24.74921838 -2 26 C-6.60361214 26.19520617 -9.99715097 25.61877919 -13.9375 23.1875 C-17.77147548 19.12116237 -18.44623891 15.71371581 -18.3203125 10.25390625 C-17.81993238 6.73293884 -16.31320111 4.63447905 -14 2 C-9.56645907 -0.74502215 -5.06212299 -0.65472253 0 0 Z M-11.5 7.125 C-13.28952585 10.55492454 -13.79235586 12.19669187 -13 16 C-10.49598994 19.08667706 -10.49598994 19.08667706 -7 21 C-3.30334521 21.0739331 -1.62433054 20.44360328 1.375 18.3125 C3.52675145 15.25039216 3.60011905 13.67572916 3 10 C1.65884601 6.99020117 1.65884601 6.99020117 -1 5 C-5.32224153 3.90172551 -8.08618622 4.22325829 -11.5 7.125 Z " fill="#000000" transform="translate(37,6)"/>
</svg>
